<?xml version="1.0" standalone="no"?>
<!DOCTYPE svg PUBLIC "-//W3C//DTD SVG 20010904//EN"
 "http://www.w3.org/TR/2001/REC-SVG-20010904/DTD/svg10.dtd">
<svg version="1.0" xmlns="http://www.w3.org/2000/svg"
 width="261.000000pt" height="261.000000pt" viewBox="0 0 261.000000 261.000000"
 preserveAspectRatio="xMidYMid meet">
<metadata>
Created by potrace 1.14, written by Peter Selinger 2001-2017
</metadata>
<g transform="translate(0.000000,261.000000) scale(0.100000,-0.100000)"
fill="#000000" stroke="none">
<path d="M711 1583 c-34 -43 -10 -93 45 -93 56 0 83 61 44 100 -28 28 -64 25
-89 -7z"/>
<path d="M1539 1580 c-88 -15 -156 -65 -195 -140 -26 -53 -31 -188 -9 -247 26
-69 91 -128 161 -149 65 -19 213 -16 297 6 l47 12 0 88 c0 85 1 88 25 94 14 4
25 13 25 21 0 12 -21 15 -126 15 -95 0 -125 -3 -122 -12 3 -7 19 -17 36 -22
l32 -9 0 -78 0 -78 -45 -7 c-90 -13 -148 14 -188 89 -18 35 -22 58 -22 142 0
88 3 107 25 149 16 31 37 55 60 67 47 26 128 25 191 -2 45 -20 49 -24 49 -55
0 -28 4 -34 20 -34 19 0 21 5 18 62 l-3 62 -48 12 c-67 17 -174 24 -228 14z"/>
<path d="M2156 1580 c-77 -14 -136 -56 -170 -123 -26 -51 -29 -68 -29 -145 0
-73 4 -97 25 -144 43 -92 126 -138 253 -138 182 0 275 94 275 278 0 97 -15
143 -62 197 -57 65 -176 95 -292 75z m163 -65 c43 -37 56 -84 56 -210 0 -97
-3 -116 -25 -160 -20 -41 -32 -53 -65 -64 -54 -18 -110 -8 -145 28 -37 37 -54
120 -48 236 8 141 47 195 144 195 42 0 59 -5 83 -25z"/>
<path d="M60 1565 c0 -8 14 -17 35 -21 l35 -6 0 -228 c0 -244 1 -240 -51 -240
-10 0 -19 -7 -19 -15 0 -13 26 -15 173 -15 192 0 232 7 283 52 63 56 79 99 79
218 0 89 -4 111 -22 146 -53 100 -120 124 -350 124 -136 0 -163 -2 -163 -15z
m328 -55 c53 -33 76 -96 75 -210 -2 -162 -34 -210 -143 -218 l-60 -4 0 226 0
226 48 0 c30 0 59 -8 80 -20z"/>
<path d="M973 1423 c-32 -4 -33 -5 -33 -54 0 -54 23 -70 34 -24 11 42 89 61
120 29 10 -9 16 -33 16 -60 l0 -44 -42 0 c-104 -1 -162 -34 -173 -100 -8 -46
14 -103 47 -121 32 -17 108 -15 145 5 28 14 32 14 37 0 4 -12 20 -14 73 -12
66 3 94 20 54 33 -20 6 -21 14 -21 138 0 85 -5 141 -13 157 -26 52 -109 70
-244 53z m135 -260 c-3 -63 -5 -67 -30 -74 -41 -11 -68 13 -68 62 0 48 27 79
70 79 l31 0 -3 -67z"/>
<path d="M660 1406 c0 -7 9 -16 20 -19 19 -5 20 -14 20 -157 0 -143 -1 -152
-20 -157 -11 -3 -20 -12 -20 -19 0 -11 22 -14 100 -14 82 0 100 3 100 15 0 8
-9 15 -20 15 -19 0 -20 7 -20 175 l0 175 -80 0 c-61 0 -80 -3 -80 -14z"/>
</g>
</svg>
